<?xml version="1.0" standalone="no"?>
<!DOCTYPE svg PUBLIC "-//W3C//DTD SVG 20010904//EN"
 "http://www.w3.org/TR/2001/REC-SVG-20010904/DTD/svg10.dtd">
<svg version="1.0" xmlns="http://www.w3.org/2000/svg"
 width="512.000000pt" height="512.000000pt" viewBox="0 0 512.000000 512.000000"
 preserveAspectRatio="xMidYMid meet">
<metadata>
Created by potrace 1.12, written by Peter Selinger 2001-2015
</metadata>
<g transform="translate(0.000000,512.000000) scale(0.100000,-0.100000)"
fill="#000000" stroke="none">
<path d="M860 4463 c-8 -3 -27 -20 -43 -36 -60 -67 -57 34 -55 -1886 l3 -1756
22 -42 c23 -42 66 -83 88 -83 11 0 37 26 285 300 101 112 241 265 310 340 14
15 61 67 105 116 44 49 89 98 100 110 11 11 40 43 64 70 45 49 183 201 296
324 33 36 98 108 145 159 47 52 99 109 115 127 17 17 48 51 69 75 21 24 78 86
125 138 103 112 103 112 118 132 15 18 22 8 -107 149 -47 51 -92 101 -100 110
-27 31 -184 203 -244 267 -32 35 -68 73 -78 86 -26 29 -71 79 -192 212 -56 60
-105 115 -111 121 -5 6 -49 53 -96 105 -47 52 -139 153 -204 224 -65 72 -144
157 -174 191 -75 81 -212 233 -231 254 -62 71 -184 200 -189 199 -3 0 -13 -3
-21 -6z"/>
<path d="M1225 4339 c16 -19 35 -38 40 -44 6 -5 53 -57 105 -115 52 -58 99
-110 105 -116 18 -19 163 -178 182 -200 15 -18 163 -180 198 -218 13 -14 288
-317 335 -370 19 -21 51 -55 70 -76 19 -21 69 -75 110 -121 41 -45 80 -87 85
-93 6 -6 57 -63 114 -126 57 -63 109 -119 115 -125 7 -5 19 -20 28 -33 l15
-23 74 82 c41 45 81 89 90 98 9 9 83 90 165 181 82 91 157 173 168 183 12 11
16 21 10 27 -5 5 -67 41 -139 81 -71 39 -152 84 -180 99 -27 15 -75 41 -105
58 -30 16 -120 65 -200 109 -80 44 -253 139 -385 212 -132 72 -247 135 -255
141 -8 5 -32 18 -53 29 -20 12 -151 83 -290 160 -139 77 -294 161 -343 187
l-89 47 30 -34z"/>
<path d="M3334 3104 c-33 -36 -75 -83 -94 -103 -41 -44 -104 -113 -215 -236
-44 -49 -91 -101 -105 -115 -14 -15 -37 -40 -52 -56 l-27 -29 30 -35 c35 -40
88 -98 168 -185 31 -33 99 -107 151 -165 52 -57 120 -131 151 -164 l56 -59
389 213 c526 288 556 309 556 384 1 49 -18 83 -64 116 -40 29 -211 127 -373
215 -38 21 -99 54 -135 75 -36 21 -95 54 -132 73 -37 20 -88 47 -113 61 -25
14 -65 37 -89 51 l-44 24 -58 -65z"/>
<path d="M2725 2432 c-6 -4 -46 -47 -90 -97 -44 -49 -85 -94 -91 -100 -6 -5
-87 -93 -179 -195 -93 -102 -207 -228 -255 -280 -48 -52 -111 -122 -141 -155
-30 -32 -69 -75 -87 -95 -19 -19 -60 -64 -92 -100 -67 -75 -83 -92 -200 -220
-93 -101 -92 -100 -215 -236 -44 -49 -103 -113 -132 -143 -28 -31 -50 -57 -48
-60 3 -2 10 1 17 6 7 6 45 27 83 48 39 21 162 88 275 150 113 62 234 129 270
148 199 109 423 232 480 263 36 20 92 51 125 69 33 18 87 47 120 65 33 18 150
82 260 143 110 60 234 128 275 150 41 23 92 50 112 62 l37 21 -31 34 c-18 19
-52 58 -77 85 -25 28 -89 97 -141 155 -106 117 -179 197 -231 252 -19 21 -39
34 -44 30z"/>
</g>
</svg>
